<svg width="140" height="140" viewBox="0 0 140 140" fill="none" xmlns="http://www.w3.org/2000/svg">
<rect width="140" height="140" fill="url(#paint0_linear_2900_23462)"/>
<g filter="url(#filter0_d_2900_23462)">
<path d="M109.352 82.1069C109.697 82.9002 110.658 86.6767 110.658 86.6767L119.022 118.464C119.022 118.464 73.7906 92.4088 58.356 83.7056C61.6413 85.3487 55.1586 81.9026 58.356 83.7056C50.9118 79.0042 35.1778 70.0508 35.1778 70.0508C35.1778 70.0508 52.6242 65.2452 61.1787 63.1271C66.4855 61.8932 71.9834 59.7421 77.4754 59.6297C92.5323 59.3212 104.411 68.3707 109.352 82.1069Z" fill="url(#paint1_linear_2900_23462)"/>
<path d="M99.4789 47.9395L34.0421 65.6581L42.5878 50.5235C47.9458 40.9778 51.5808 34.4207 63.5758 32.5359C73.5504 30.9685 80.2167 36.9103 88.4241 41.3955C91.9785 43.3379 99.4789 47.9395 99.4789 47.9395Z" fill="url(#paint2_linear_2900_23462)"/>
<path d="M54.4223 20.6163L29.9766 63.3126C29.9766 63.3126 27.8924 55.8504 27.0109 52.5519C25.2795 45.8466 22.6298 39.637 26.675 33.1245C30.7598 26.548 36.2685 25.4355 43.1154 23.6153L54.4223 20.6163Z" fill="url(#paint3_linear_2900_23462)"/>
<path d="M54.8189 20.3119C54.9417 20.4718 54.9561 20.6901 54.856 20.8651L30.4104 63.561C30.3102 63.7359 30.1148 63.8339 29.9148 63.809C29.7148 63.7841 29.5496 63.6413 29.4953 63.4473L29.4895 63.4256C29.4855 63.4114 29.4793 63.3902 29.4716 63.3626C29.4561 63.3071 29.4329 63.2252 29.4036 63.12C29.3448 62.9095 29.2603 62.6046 29.1557 62.229C28.9465 61.4777 28.658 60.4418 28.3423 59.3027C27.7112 57.0253 26.9691 54.3334 26.5277 52.6815L26.5265 52.6768C25.6738 49.3749 24.5589 46.073 24.1804 42.8232C23.7976 39.5353 24.1549 36.2351 26.2507 32.861C30.4562 26.0901 36.1759 24.9432 42.9866 23.1325L42.9876 23.1323L54.2938 20.1331L54.368 20.1193C54.5397 20.1005 54.7115 20.172 54.8189 20.3119ZM110.986 85.9487C111.034 86.1322 111.073 86.2831 111.1 86.3883C111.114 86.4409 111.125 86.4822 111.132 86.5103C111.135 86.5243 111.139 86.5351 111.14 86.5423C111.141 86.5459 111.141 86.5492 111.142 86.5511L111.143 86.5539L111.141 86.5532L119.506 118.337C119.557 118.532 119.486 118.739 119.326 118.862C119.166 118.984 118.948 118.998 118.773 118.898L118.772 118.897L118.642 118.823C118.556 118.773 118.429 118.7 118.261 118.603C117.926 118.41 117.432 118.125 116.799 117.761C115.532 117.031 113.705 115.979 111.464 114.69C106.983 112.112 100.847 108.583 94.2284 104.782C80.9907 97.1802 65.8256 88.4912 58.1104 84.1408C57.9098 84.0277 57.7461 83.935 57.6156 83.8599C57.4856 83.7851 57.3864 83.727 57.3146 83.6837C57.2789 83.6622 57.2479 83.6429 57.2224 83.6265C57.2097 83.6183 57.1966 83.6097 57.1843 83.6013C57.1782 83.5971 57.1713 83.5924 57.1644 83.5874C57.1577 83.5826 57.1493 83.5766 57.1405 83.5696C57.1359 83.566 57.1305 83.5614 57.1248 83.5566C57.1193 83.5519 57.1124 83.5457 57.1049 83.5387C57.0975 83.5318 57.0871 83.5221 57.076 83.5101C57.0712 83.5048 57.062 83.494 57.0569 83.4879C57.0554 83.486 57.0539 83.4829 57.0518 83.4801C53.3542 81.1829 48.1565 78.123 43.7243 75.5479C41.2935 74.1356 39.0948 72.8699 37.504 71.9574C36.7086 71.5012 36.0651 71.1327 35.6206 70.8788C35.3985 70.7519 35.2257 70.6539 35.1088 70.5873C35.0503 70.554 35.006 70.5277 34.976 70.5106C34.9611 70.5021 34.9491 70.4959 34.9416 70.4915C34.938 70.4895 34.935 70.4878 34.9332 70.4867L34.9311 70.4863L34.9308 70.4853C34.7552 70.3854 34.6566 70.1895 34.6816 69.989C34.7035 69.8136 34.8159 69.6647 34.9741 69.5942L35.0452 69.569L35.0575 69.5657C35.0658 69.5634 35.0785 69.5592 35.095 69.5547C35.1282 69.5455 35.178 69.5319 35.2428 69.5141C35.3727 69.4783 35.5647 69.4254 35.8115 69.3576C36.3054 69.2221 37.0207 69.0263 37.9054 68.7844C39.675 68.3007 42.1236 67.6334 44.8396 66.9002C50.2702 65.4341 56.7758 63.7026 61.0587 62.6422L61.0653 62.6404C63.72 62.0232 66.3655 61.1909 69.132 60.4739C71.8687 59.7647 74.6611 59.1871 77.4655 59.1297C92.7544 58.8165 104.814 68.0167 109.823 81.9374L109.822 81.9377C110.014 82.3979 110.345 83.5555 110.617 84.5585C110.759 85.0822 110.891 85.5812 110.986 85.9487ZM99.7402 47.5126C99.9103 47.617 100.002 47.8136 99.9739 48.0111C99.9454 48.2084 99.8022 48.3699 99.6099 48.4221L34.1731 66.1408C33.9786 66.1935 33.7706 66.1245 33.6469 65.9654C33.5232 65.8062 33.5077 65.5875 33.6068 65.412L42.152 50.2784C44.8214 45.5226 47.1034 41.4291 50.2401 38.3024C53.4006 35.152 57.4084 32.9992 63.4984 32.0423C68.6129 31.2387 72.876 32.3647 76.8753 34.243C78.8697 35.1797 80.8027 36.3056 82.7395 37.47C84.6822 38.6379 86.6241 39.8419 88.6641 40.9567C90.4515 41.9335 93.2234 43.5748 95.542 44.9676C96.7026 45.6647 97.752 46.3011 98.5112 46.7632C98.8909 46.9943 99.1982 47.1821 99.4104 47.3118C99.5163 47.3765 99.5987 47.4265 99.6546 47.4608C99.6825 47.4779 99.7044 47.4914 99.7187 47.5002C99.7257 47.5045 99.7309 47.5079 99.7345 47.5101C99.7363 47.5112 99.7384 47.5123 99.7393 47.5129L99.7402 47.5126Z" stroke="url(#paint4_linear_2900_23462)" stroke-linejoin="round"/>
</g>
<defs>
<filter id="filter0_d_2900_23462" x="15.5469" y="15.6162" width="112.477" height="115.849" filterUnits="userSpaceOnUse" color-interpolation-filters="sRGB">
<feFlood flood-opacity="0" result="BackgroundImageFix"/>
<feColorMatrix in="SourceAlpha" type="matrix" values="0 0 0 0 0 0 0 0 0 0 0 0 0 0 0 0 0 0 127 0" result="hardAlpha"/>
<feOffset dy="4"/>
<feGaussianBlur stdDeviation="4"/>
<feComposite in2="hardAlpha" operator="out"/>
<feColorMatrix type="matrix" values="0 0 0 0 0 0 0 0 0 0 0 0 0 0 0 0 0 0 0.25 0"/>
<feBlend mode="normal" in2="BackgroundImageFix" result="effect1_dropShadow_2900_23462"/>
<feBlend mode="normal" in="SourceGraphic" in2="effect1_dropShadow_2900_23462" result="shape"/>
</filter>
<linearGradient id="paint0_linear_2900_23462" x1="70" y1="0" x2="70" y2="140" gradientUnits="userSpaceOnUse">
<stop stop-color="#2B5182"/>
<stop offset="1" stop-color="#0D1826"/>
</linearGradient>
<linearGradient id="paint1_linear_2900_23462" x1="108.873" y1="79.9796" x2="38.9417" y2="98.7177" gradientUnits="userSpaceOnUse">
<stop stop-color="#0D71F2"/>
<stop offset="1" stop-color="#6ED5F7"/>
</linearGradient>
<linearGradient id="paint2_linear_2900_23462" x1="108.873" y1="79.9796" x2="38.9417" y2="98.7177" gradientUnits="userSpaceOnUse">
<stop stop-color="#0D71F2"/>
<stop offset="1" stop-color="#6ED5F7"/>
</linearGradient>
<linearGradient id="paint3_linear_2900_23462" x1="108.873" y1="79.9796" x2="38.9417" y2="98.7177" gradientUnits="userSpaceOnUse">
<stop stop-color="#0D71F2"/>
<stop offset="1" stop-color="#6ED5F7"/>
</linearGradient>
<linearGradient id="paint4_linear_2900_23462" x1="66.5" y1="119.5" x2="86" y2="21" gradientUnits="userSpaceOnUse">
<stop stop-color="#2D75D2"/>
<stop offset="0.509615" stop-color="#D8E4F3"/>
<stop offset="1" stop-color="#5590DD"/>
</linearGradient>
</defs>
</svg>
